<svg width="640" height="340" viewBox="0 0 640 340" fill="none" xmlns="http://www.w3.org/2000/svg">
<g clip-path="url(#clip0_1_2)">
<rect width="640" height="480" fill="white"/>
<rect width="128.815" height="162.713" transform="matrix(0.83205 -0.5547 0.830139 0.557556 16 145.691)" fill="#E6E6E6"/>
<path d="M111.069 82.9642C116.25 82.9642 118.911 85.0938 120.339 87.0599C121.083 88.0836 121.527 89.116 121.784 89.8939C121.911 90.2802 121.99 90.5957 122.036 90.805C122.05 90.8723 122.061 90.9287 122.069 90.972V138.404L111.069 158.756L100.069 138.404V90.972C100.077 90.9287 100.088 90.8723 100.102 90.805C100.148 90.5957 100.227 90.2802 100.354 89.8939C100.611 89.116 101.055 88.0836 101.798 87.0599C103.227 85.0938 105.887 82.9642 111.069 82.9642Z" fill="white" stroke="#222222" stroke-width="4"/>
<path d="M116.337 163.625L133.295 167.151L127.869 150.702L116.337 163.625ZM129.154 159.398L129.613 160.826C138.308 158.027 145.693 155.833 151.786 154.379C157.904 152.919 162.609 152.234 165.985 152.382C169.394 152.533 170.987 153.497 171.654 154.831C172.396 156.318 172.356 158.898 170.856 163.123L172.27 163.625L173.683 164.127C175.224 159.787 175.668 156.155 174.337 153.491C172.931 150.675 169.895 149.552 166.117 149.385C162.308 149.217 157.27 149.986 151.089 151.461C144.883 152.942 137.412 155.164 128.694 157.97L129.154 159.398ZM172.27 163.625L170.856 163.123C169.95 165.677 169.67 167.999 170.081 170.032C170.5 172.101 171.614 173.759 173.272 174.956C176.485 177.278 181.59 177.784 187.521 176.95C199.509 175.265 216.277 167.914 232.522 155.089L231.592 153.911L230.663 152.734C214.704 165.333 198.421 172.389 187.103 173.979C181.382 174.784 177.271 174.145 175.029 172.525C173.958 171.752 173.285 170.739 173.022 169.437C172.751 168.099 172.895 166.349 173.683 164.127L172.27 163.625Z" fill="black"/>
<path d="M377.001 119.285C383.905 116.402 388.788 111.784 398.275 111.356C408.155 110.91 420.124 113.297 432.007 116.804C444.211 120.406 457.311 124.849 468.033 131.943C478.652 138.969 482.932 147.799 490.941 155.796C498.698 163.539 510.182 170.822 514.79 178.624C519.443 186.503 519.527 193.836 516.766 199.524C514.111 204.995 505.597 206.889 499.422 210.284C493.593 213.488 489.522 218.057 481.169 219.092C472.735 220.138 462.116 218.434 451.533 216.221C440.957 214.009 429.978 211.109 419.349 206.163C408.791 201.251 400.42 194.124 390.832 187.977C380.074 181.08 366.057 175.547 358.98 167.459C351.957 159.432 353.59 152.246 353.485 145.294C353.387 138.799 354.243 132.596 358.385 128.015C362.39 123.585 370.455 122.019 377.001 119.285Z" fill="#E6E6E6"/>
<path d="M508.125 135.099C507.379 134.597 507.06 133.852 507.237 133.028C507.415 132.203 508.075 131.366 509.072 130.701L535.397 113.151C536.395 112.486 537.648 112.048 538.881 111.932C540.114 111.816 541.226 112.033 541.972 112.534C542.718 113.036 543.038 113.78 542.86 114.605C542.683 115.43 542.023 116.267 541.025 116.932L514.7 134.481C513.703 135.146 512.45 135.585 511.217 135.701C509.984 135.816 508.872 135.6 508.125 135.099Z" fill="black"/>
<path d="M396.333 55.218L427.621 34.3591C427.765 34.2633 427.918 34.1739 428.08 34.0906C429.673 33.0469 431.153 32.1382 432.519 31.3644C435.348 29.7576 438.084 28.5206 441.253 27.8051C446.3 26.6759 451.708 26.6352 456.702 27.6889C459.847 28.3501 462.527 29.5448 465.276 31.1031C467.956 32.6241 470.998 34.6674 474.771 37.2015L555.809 91.6302C559.582 94.1644 562.632 96.2123 564.881 98.0016C567.206 99.8518 568.982 101.65 569.958 103.756C571.51 107.101 571.427 110.718 569.72 114.089C568.646 116.211 566.787 118.038 564.383 119.92C562.036 121.755 558.898 123.847 555.007 126.441L528.866 143.868C524.975 146.462 521.83 148.559 519.094 150.113C516.265 151.719 513.529 152.956 510.352 153.667C505.307 154.799 499.899 154.843 494.903 153.793C491.766 153.127 489.086 151.932 486.336 150.374C483.657 148.862 480.608 146.814 476.834 144.28L395.803 89.8562C392.03 87.322 388.981 85.2741 386.732 83.4848C384.406 81.6346 382.631 79.8369 381.647 77.7349C380.092 74.387 380.175 70.7666 381.886 67.393C382.966 65.2749 384.825 63.4487 387.23 61.5662C388.391 60.6552 389.757 59.667 391.328 58.6014L391.724 58.2909L396.333 55.218ZM396.213 64.7265L394.752 65.8306C392.751 67.3883 391.822 68.4362 391.341 69.3813C390.314 71.406 390.264 73.579 391.198 75.5883C391.636 76.5262 392.517 77.5599 394.447 79.0868C396.411 80.656 399.168 82.5076 403.122 85.1633L483.875 139.4C487.829 142.056 490.593 143.912 492.923 145.228C495.198 146.525 496.74 147.118 498.139 147.415C501.139 148.047 504.386 148.022 507.416 147.342C508.83 147.024 510.4 146.406 512.735 145.073C515.134 143.715 517.977 141.82 522.055 139.101L547.902 121.87C551.98 119.152 554.823 117.256 556.86 115.656C558.869 114.093 559.79 113.05 560.272 112.105C561.298 110.08 561.349 107.907 560.415 105.898C559.977 104.96 559.096 103.926 557.166 102.4C555.208 100.835 552.445 98.9788 548.491 96.323L467.738 42.0861C463.784 39.4303 461.027 37.5788 458.689 36.2585C456.415 34.9613 454.873 34.3679 453.473 34.0714C450.474 33.4392 447.226 33.4646 444.197 34.1441C442.782 34.4626 441.22 35.0756 438.878 36.4137L437.222 37.3868L438.456 39.08L438.73 39.4563C439.895 41.0459 441.026 42.5838 441.214 44.2474C441.374 45.6975 440.985 47.1612 440.084 48.5039C439.051 50.0398 437.185 51.2748 435.268 52.5527L418.884 63.4752C416.967 64.7532 415.115 65.9975 412.816 66.6825C410.806 67.2806 408.617 67.5353 406.45 67.4229C403.965 67.291 401.671 66.5285 399.307 65.7477L398.745 65.5628L396.213 64.7265ZM403.668 59.6447C406.706 60.6474 407.163 60.7337 407.488 60.7501C407.987 60.7768 408.491 60.7192 408.955 60.5825C409.275 60.4901 409.69 60.2882 412.382 58.4933L427.847 48.1835C430.539 46.3886 430.843 46.1119 430.982 45.9074C431.187 45.5957 431.272 45.2567 431.231 44.9216C431.214 44.6994 431.08 44.3977 429.6 42.3564L403.668 59.6447Z" fill="black"/>
<path d="M534.852 50.8366C535.004 50.0221 534.466 49.2392 533.651 49.088L520.378 46.6234C519.564 46.4722 518.781 47.0099 518.63 47.8244C518.478 48.6389 519.016 49.4218 519.831 49.573L531.629 51.7637L529.438 63.5621C529.287 64.3766 529.825 65.1595 530.639 65.3107C531.454 65.462 532.237 64.9243 532.388 64.1098L534.852 50.8366ZM493.97 77.6276L494.819 78.8641L534.227 51.7993L533.378 50.5628L532.528 49.3263L493.121 76.3912L493.97 77.6276Z" fill="#8A8A8A"/>
<path d="M561.28 63.9223C560.517 66.6389 562.04 69.2757 565.847 71.833C571.56 75.6697 588.341 77.5508 594.668 73.3322L610.858 62.539C617.049 58.4116 615.395 52.2649 611.047 49.3448L592.686 37.0123C591.566 36.2604 590.047 35.8364 588.462 35.8337C586.877 35.831 585.356 36.2497 584.234 36.9977L584.22 37.0071C583.101 37.7527 582.472 38.7654 582.47 39.8225C582.468 40.8796 583.094 41.8945 584.21 42.6439" fill="white"/>
<path d="M561.28 63.9223C560.517 66.6389 562.04 69.2757 565.847 71.833C571.56 75.6697 588.341 77.5508 594.668 73.3322L610.858 62.539C617.049 58.4116 615.395 52.2649 611.047 49.3448L592.686 37.0123C591.566 36.2604 590.047 35.8364 588.462 35.8337C586.877 35.831 585.356 36.2497 584.234 36.9977L584.22 37.0071C583.101 37.7527 582.472 38.7654 582.47 39.8225C582.468 40.8796 583.094 41.8945 584.21 42.6439" stroke="black" stroke-width="4" stroke-linecap="round"/>
<path d="M566.46 64.7306L537.7 45.4144C537.146 45.0415 536.707 44.5993 536.408 44.113C536.109 43.6267 535.956 43.1059 535.959 42.5804C535.961 42.0549 536.117 41.535 536.42 41.0504C536.723 40.5657 537.165 40.1259 537.722 39.756C538.851 39.0076 540.378 38.5897 541.968 38.5941C543.558 38.5984 545.081 39.0245 546.204 39.7791L568.11 54.4921" fill="white"/>
<path d="M566.46 64.7306L537.7 45.4144C537.146 45.0415 536.707 44.5993 536.408 44.113C536.109 43.6267 535.956 43.1059 535.959 42.5804C535.961 42.0549 536.117 41.535 536.42 41.0504C536.723 40.5657 537.165 40.1259 537.722 39.756C538.851 39.0076 540.378 38.5897 541.968 38.5941C543.558 38.5984 545.081 39.0245 546.204 39.7791L568.11 54.4921" stroke="black" stroke-width="4" stroke-linecap="round"/>
<path d="M567.288 53.9402L561.671 50.1677C560.594 49.4057 560.003 48.3926 560.025 47.3443C560.047 46.2961 560.68 45.2956 561.789 44.5562C562.898 43.8168 564.395 43.397 565.962 43.3862C567.529 43.3754 569.04 43.7745 570.175 44.4984L575.792 48.2709" fill="white"/>
<path d="M567.288 53.9402L561.671 50.1677C560.594 49.4057 560.003 48.3926 560.025 47.3443C560.047 46.2961 560.68 45.2956 561.789 44.5562C562.898 43.8168 564.395 43.397 565.962 43.3862C567.529 43.3754 569.04 43.7745 570.175 44.4984L575.792 48.2709" stroke="black" stroke-width="4" stroke-linecap="round" stroke-linejoin="round"/>
<path d="M575.349 48.0165L571.531 45.4527C570.412 44.7008 569.784 43.6825 569.786 42.6219C569.788 41.5613 570.419 40.5452 571.541 39.7971C572.663 39.0491 574.184 38.6303 575.769 38.6331C577.354 38.6358 578.874 39.0597 579.993 39.8116L584.214 42.6467" fill="white"/>
<path d="M575.349 48.0165L571.531 45.4527C570.412 44.7008 569.784 43.6825 569.786 42.6219C569.788 41.5613 570.419 40.5452 571.541 39.7971C572.663 39.0491 574.184 38.6303 575.769 38.6331C577.354 38.6358 578.874 39.0597 579.993 39.8116L584.214 42.6467" stroke="black" stroke-width="4" stroke-linecap="round" stroke-linejoin="round"/>
<path d="M452.604 80.2674C453.691 79.7799 454.911 79.2036 456.264 78.5386C457.639 77.8588 459.025 77.1567 460.423 76.4324C461.843 75.6934 463.174 74.9838 464.416 74.3038C465.68 73.6089 466.745 73.0027 467.61 72.4851L470.266 74.8477C469.334 75.38 468.247 75.9861 467.005 76.6662C465.763 77.3166 464.454 77.9965 463.079 78.706C461.703 79.4155 460.328 80.1101 458.953 80.79C457.577 81.4698 456.291 82.0904 455.093 82.6519L452.604 80.2674ZM476.744 77.4615C476.655 77.8766 476.576 78.2991 476.509 78.7291C476.442 79.159 476.397 79.5297 476.374 79.8411C476.329 80.2859 476.284 80.8642 476.238 81.576C476.17 82.2729 476.125 83.0143 476.101 83.8003C476.056 84.5714 476.021 85.2906 475.998 85.9579C475.952 86.6103 475.952 87.1146 475.995 87.4706C476.128 87.3522 476.339 87.2265 476.628 87.0935C476.916 86.9308 477.182 86.8127 477.426 86.7389C478.091 86.4138 478.801 86.2667 479.554 86.2977C480.33 86.3139 481.161 86.471 482.047 86.7691C482.446 86.8884 482.911 87.0524 483.442 87.2609C483.974 87.4398 484.505 87.6335 485.037 87.842C485.569 88.0209 486.056 88.1849 486.499 88.3339C487.252 88.6022 487.972 88.6998 488.659 88.6268C489.369 88.5391 490.1 88.2437 490.855 87.7408C491.654 87.2083 492.419 86.6683 493.151 86.1208C493.862 85.5585 494.505 85.0109 495.082 84.478C495.66 83.9451 496.159 83.464 496.581 83.0347L499.868 85.5095C499.468 85.8648 498.913 86.3235 498.203 86.8859C497.515 87.4631 496.783 88.0402 496.006 88.6172C495.252 89.2091 494.586 89.6974 494.009 90.082C492.567 91.0434 491.203 91.6714 489.917 91.9658C488.653 92.275 487.29 92.1911 485.828 91.714C485.385 91.565 484.876 91.3862 484.3 91.1775C483.702 90.9541 483.115 90.738 482.539 90.5294C481.963 90.2911 481.487 90.1049 481.111 89.9708C480.313 89.7025 479.615 89.5901 479.017 89.6335C478.396 89.6621 477.875 89.817 477.454 90.098C477.054 90.3643 476.777 90.7123 476.621 91.1421C476.465 91.5422 476.386 91.9944 476.386 92.4987C476.385 92.8249 476.395 93.2476 476.417 93.7667C476.416 94.2709 476.437 94.8493 476.48 95.5019C476.523 96.1249 476.578 96.7849 476.643 97.482C476.686 98.1643 476.751 98.8614 476.839 99.5734C476.904 100.271 477.003 100.931 477.135 101.554L471.781 102.19C471.804 101.878 471.838 101.515 471.883 101.1C471.95 100.67 471.995 100.21 472.018 99.7208C471.997 99.3797 471.987 98.8236 471.988 98.0524C471.989 97.2812 471.991 96.3766 471.993 95.3385C471.994 94.3004 471.985 93.1955 471.965 92.0239C471.967 90.8375 471.969 89.6659 471.971 88.5092C471.995 87.3376 472.008 86.2476 472.01 85.2392C471.989 84.2159 471.969 83.3409 471.948 82.6142C471.482 82.9545 470.938 83.3613 470.317 83.8348C469.695 84.3083 469.052 84.8115 468.386 85.3442C467.72 85.8473 467.066 86.3578 466.422 86.8757C465.801 87.3789 465.213 87.845 464.658 88.2742C464.125 88.6885 463.67 89.051 463.293 89.3618C462.76 89.7465 462.294 90.1164 461.895 90.4717C461.517 90.8121 461.173 91.1304 460.863 91.4265L456.91 89.1729C457.31 88.9363 457.776 88.6553 458.308 88.33C458.863 87.9898 459.429 87.6275 460.005 87.2429C460.338 86.9913 460.871 86.6067 461.603 86.0889C462.313 85.5562 463.123 84.957 464.033 84.2912C464.943 83.5957 465.853 82.9003 466.763 82.2048C467.695 81.4946 468.56 80.8287 469.359 80.2072C470.158 79.5857 470.79 79.0752 471.257 78.6756C471.501 78.4535 471.756 78.2093 472.022 77.9428C472.311 77.6615 472.5 77.4468 472.589 77.2987L476.744 77.4615Z" fill="black"/>
<path d="M407.171 185.673L395.096 177.563L402.684 172.505L404.252 173.558L398.491 177.399L402.17 179.87L407.536 176.293L409.098 177.343L403.732 180.92L407.429 183.403L413.262 179.514L414.83 180.568L407.171 185.673ZM421.411 176.401C420.6 176.942 419.735 177.332 418.818 177.57C417.904 177.805 417.015 177.88 416.149 177.794C415.284 177.703 414.509 177.446 413.825 177.024L415.681 175.787C416.062 176.011 416.493 176.14 416.973 176.172C417.453 176.199 417.941 176.142 418.437 176.001C418.933 175.86 419.398 175.644 419.831 175.356C420.308 175.038 420.647 174.701 420.848 174.346C421.053 173.988 421.113 173.641 421.027 173.304C420.937 172.964 420.697 172.663 420.308 172.402C419.903 172.13 419.443 171.961 418.928 171.894C418.413 171.822 417.867 171.859 417.293 172.006C416.722 172.15 416.157 172.408 415.597 172.781L414.575 173.462L413.089 172.465L414.112 171.783C414.561 171.484 414.874 171.167 415.052 170.833C415.233 170.496 415.277 170.167 415.183 169.846C415.085 169.521 414.842 169.229 414.453 168.967C414.079 168.717 413.67 168.555 413.226 168.483C412.781 168.406 412.327 168.417 411.862 168.517C411.402 168.613 410.965 168.799 410.551 169.075C410.157 169.338 409.861 169.632 409.664 169.958C409.467 170.279 409.395 170.6 409.45 170.922C409.501 171.241 409.703 171.529 410.056 171.788L408.289 172.966C407.657 172.514 407.276 172 407.147 171.423C407.022 170.844 407.123 170.258 407.451 169.666C407.779 169.074 408.313 168.532 409.053 168.038C409.83 167.52 410.651 167.176 411.517 167.003C412.383 166.826 413.219 166.802 414.025 166.933C414.836 167.06 415.536 167.325 416.125 167.726C416.805 168.178 417.19 168.689 417.28 169.261C417.373 169.83 417.185 170.378 416.716 170.907L416.81 170.97C417.736 170.516 418.677 170.315 419.633 170.367C420.593 170.416 421.452 170.698 422.211 171.212C422.879 171.656 423.29 172.179 423.442 172.783C423.598 173.383 423.507 173.999 423.167 174.631C422.824 175.259 422.238 175.849 421.411 176.401ZM432.013 169.333C431.166 169.898 430.272 170.299 429.331 170.537C428.394 170.773 427.487 170.841 426.609 170.742C425.732 170.643 424.969 170.373 424.32 169.932C423.806 169.592 423.44 169.207 423.225 168.777C423.009 168.342 422.943 167.905 423.026 167.465C423.106 167.023 423.334 166.623 423.713 166.266L423.642 166.218C422.894 166.522 422.089 166.628 421.227 166.534C420.366 166.44 419.613 166.175 418.968 165.736C418.347 165.324 417.96 164.846 417.808 164.301C417.655 163.75 417.731 163.187 418.035 162.61C418.339 162.034 418.863 161.498 419.608 161.002C420.344 160.51 421.144 160.167 422.006 159.971C422.868 159.77 423.71 159.721 424.533 159.825C425.351 159.927 426.069 160.182 426.686 160.591C427.33 161.029 427.719 161.538 427.852 162.118C427.985 162.697 427.83 163.232 427.389 163.721L427.459 163.768C427.991 163.519 428.584 163.371 429.237 163.325C429.89 163.273 430.541 163.321 431.19 163.466C431.84 163.607 432.422 163.848 432.936 164.188C433.585 164.629 433.982 165.143 434.126 165.731C434.271 166.318 434.163 166.926 433.804 167.555C433.449 168.181 432.852 168.774 432.013 169.333ZM430.521 168.331C431.021 167.998 431.372 167.654 431.573 167.298C431.771 166.941 431.821 166.594 431.723 166.26C431.621 165.923 431.37 165.617 430.969 165.342C430.544 165.062 430.063 164.886 429.524 164.814C428.989 164.74 428.445 164.763 427.894 164.883C427.343 165.003 426.831 165.221 426.359 165.536C425.882 165.854 425.551 166.198 425.365 166.569C425.18 166.94 425.142 167.304 425.251 167.663C425.361 168.021 425.628 168.34 426.052 168.62C426.453 168.895 426.903 169.068 427.403 169.14C427.903 169.206 428.422 169.173 428.961 169.04C429.497 168.904 430.017 168.668 430.521 168.331ZM424.902 164.558C425.304 164.29 425.58 163.998 425.73 163.682C425.88 163.366 425.9 163.053 425.791 162.742C425.685 162.429 425.442 162.141 425.06 161.88C424.679 161.629 424.258 161.468 423.798 161.396C423.342 161.321 422.881 161.336 422.417 161.441C421.948 161.543 421.509 161.73 421.099 162.003C420.682 162.282 420.394 162.579 420.236 162.895C420.078 163.205 420.054 163.513 420.164 163.819C420.273 164.124 420.519 164.403 420.9 164.653C421.281 164.915 421.704 165.083 422.168 165.157C422.632 165.232 423.101 165.219 423.573 165.12C424.05 165.018 424.493 164.831 424.902 164.558ZM430.79 153.768L442.864 161.878L441.032 163.099L430.785 156.217L430.714 156.264L429.705 159.462L427.96 158.29L429.011 154.954L430.79 153.768ZM450.393 157.08C449.546 157.645 448.652 158.046 447.711 158.284C446.774 158.519 445.867 158.588 444.989 158.489C444.112 158.39 443.349 158.12 442.7 157.679C442.185 157.338 441.82 156.953 441.604 156.524C441.389 156.089 441.323 155.652 441.406 155.212C441.485 154.77 441.714 154.37 442.093 154.013L442.022 153.965C441.274 154.269 440.469 154.375 439.607 154.281C438.746 154.187 437.992 153.921 437.348 153.483C436.727 153.071 436.34 152.593 436.188 152.047C436.035 151.497 436.111 150.933 436.415 150.357C436.719 149.781 437.243 149.245 437.988 148.748C438.724 148.257 439.524 147.914 440.386 147.718C441.248 147.516 442.09 147.468 442.912 147.572C443.731 147.673 444.449 147.929 445.066 148.338C445.71 148.776 446.099 149.285 446.232 149.865C446.365 150.444 446.21 150.978 445.769 151.467L445.839 151.515C446.371 151.266 446.963 151.118 447.617 151.072C448.27 151.02 448.921 151.067 449.57 151.213C450.219 151.354 450.801 151.595 451.316 151.935C451.965 152.376 452.361 152.89 452.506 153.478C452.651 154.065 452.543 154.673 452.184 155.302C451.829 155.928 451.232 156.521 450.393 157.08ZM448.901 156.078C449.401 155.745 449.752 155.4 449.953 155.045C450.151 154.687 450.2 154.341 450.103 154.007C450.001 153.669 449.75 153.364 449.349 153.089C448.924 152.809 448.442 152.633 447.903 152.561C447.368 152.487 446.825 152.509 446.274 152.629C445.723 152.75 445.211 152.967 444.738 153.282C444.262 153.6 443.931 153.945 443.745 154.316C443.559 154.687 443.521 155.051 443.631 155.41C443.741 155.768 444.008 156.087 444.432 156.367C444.833 156.641 445.283 156.815 445.783 156.886C446.283 156.953 446.802 156.92 447.341 156.786C447.877 156.65 448.397 156.414 448.901 156.078ZM443.282 152.304C443.684 152.037 443.96 151.745 444.11 151.429C444.26 151.113 444.28 150.8 444.171 150.489C444.065 150.175 443.821 149.888 443.44 149.627C443.059 149.376 442.638 149.215 442.178 149.143C441.721 149.068 441.261 149.083 440.797 149.188C440.328 149.29 439.889 149.477 439.479 149.75C439.062 150.029 438.774 150.326 438.616 150.641C438.458 150.952 438.434 151.26 438.544 151.566C438.653 151.871 438.899 152.149 439.28 152.4C439.661 152.662 440.084 152.829 440.548 152.904C441.012 152.979 441.481 152.966 441.953 152.867C442.429 152.765 442.872 152.578 443.282 152.304ZM460.907 150.07C460.06 150.635 459.166 151.036 458.225 151.274C457.288 151.51 456.381 151.578 455.504 151.479C454.626 151.38 453.863 151.11 453.215 150.669C452.7 150.329 452.334 149.944 452.119 149.514C451.903 149.079 451.837 148.642 451.92 148.203C452 147.76 452.229 147.36 452.607 147.003L452.536 146.956C451.788 147.26 450.983 147.365 450.122 147.271C449.26 147.178 448.507 146.912 447.862 146.473C447.241 146.062 446.854 145.583 446.702 145.038C446.549 144.487 446.625 143.924 446.929 143.348C447.233 142.771 447.757 142.235 448.502 141.739C449.239 141.248 450.038 140.904 450.9 140.708C451.762 140.507 452.605 140.458 453.427 140.562C454.245 140.664 454.963 140.919 455.58 141.328C456.225 141.767 456.613 142.275 456.746 142.855C456.879 143.434 456.725 143.969 456.283 144.458L456.354 144.505C456.885 144.256 457.478 144.108 458.131 144.062C458.784 144.01 459.436 144.058 460.085 144.204C460.734 144.344 461.316 144.585 461.831 144.925C462.479 145.366 462.876 145.88 463.02 146.468C463.165 147.055 463.058 147.663 462.698 148.292C462.343 148.918 461.746 149.511 460.907 150.07ZM459.415 149.069C459.916 148.735 460.266 148.391 460.468 148.036C460.665 147.678 460.715 147.332 460.617 146.997C460.515 146.66 460.264 146.354 459.863 146.079C459.439 145.8 458.957 145.624 458.418 145.552C457.883 145.477 457.34 145.5 456.789 145.62C456.237 145.74 455.726 145.958 455.253 146.273C454.776 146.591 454.445 146.935 454.259 147.306C454.074 147.677 454.036 148.042 454.145 148.4C454.255 148.758 454.522 149.077 454.946 149.357C455.347 149.632 455.798 149.805 456.297 149.877C456.797 149.944 457.316 149.91 457.856 149.777C458.391 149.641 458.911 149.405 459.415 149.069ZM453.796 145.295C454.198 145.027 454.474 144.735 454.624 144.419C454.774 144.104 454.795 143.79 454.685 143.479C454.579 143.166 454.336 142.878 453.955 142.617C453.573 142.366 453.153 142.205 452.692 142.133C452.236 142.059 451.775 142.074 451.311 142.178C450.842 142.28 450.403 142.468 449.994 142.741C449.576 143.019 449.288 143.316 449.13 143.632C448.972 143.942 448.948 144.25 449.058 144.556C449.168 144.862 449.413 145.14 449.794 145.391C450.176 145.652 450.598 145.82 451.063 145.894C451.527 145.969 451.995 145.957 452.467 145.857C452.944 145.755 453.387 145.568 453.796 145.295Z" fill="black"/>
<path d="M508.771 238.451C508.149 238.118 507.457 238.001 506.693 238.1C505.926 238.196 505.195 238.475 504.502 238.937C504.006 239.268 503.655 239.607 503.45 239.955C503.24 240.299 503.171 240.63 503.241 240.946C503.312 241.257 503.518 241.527 503.86 241.756C504.147 241.949 504.461 242.071 504.804 242.121C505.15 242.169 505.504 242.167 505.866 242.115C506.228 242.058 506.584 241.976 506.935 241.868C507.281 241.758 507.602 241.644 507.898 241.526L509.386 240.944C509.866 240.75 510.39 240.572 510.957 240.41C511.524 240.248 512.112 240.139 512.723 240.085C513.333 240.031 513.939 240.064 514.54 240.183C515.146 240.3 515.72 240.541 516.263 240.905C516.947 241.364 517.377 241.89 517.553 242.483C517.733 243.073 517.641 243.694 517.278 244.347C516.919 244.997 516.266 245.637 515.321 246.267C514.415 246.871 513.487 247.297 512.539 247.546C511.59 247.794 510.665 247.867 509.764 247.762C508.859 247.656 508.023 247.371 507.257 246.909L509.089 245.688C509.56 245.957 510.066 246.107 510.605 246.137C511.144 246.161 511.679 246.091 512.211 245.926C512.742 245.756 513.242 245.514 513.711 245.202C514.227 244.858 514.606 244.498 514.846 244.122C515.087 243.74 515.178 243.374 515.12 243.024C515.058 242.671 514.83 242.363 514.437 242.099C514.079 241.858 513.684 241.73 513.251 241.713C512.822 241.694 512.36 241.75 511.864 241.881C511.371 242.009 510.852 242.179 510.304 242.392L508.485 243.084C507.253 243.553 506.097 243.805 505.019 243.84C503.945 243.872 502.987 243.606 502.146 243.041C501.45 242.574 501.032 242.04 500.891 241.439C500.751 240.839 500.86 240.227 501.219 239.603C501.574 238.977 502.158 238.394 502.969 237.853C503.789 237.306 504.655 236.921 505.568 236.696C506.486 236.468 507.377 236.403 508.243 236.499C509.104 236.593 509.867 236.852 510.532 237.277L508.771 238.451ZM525.646 239.36C524.795 239.927 523.858 240.292 522.835 240.453C521.811 240.615 520.774 240.577 519.724 240.341C518.674 240.105 517.681 239.673 516.746 239.044C515.806 238.413 515.16 237.745 514.807 237.039C514.454 236.332 514.4 235.637 514.645 234.953C514.89 234.269 515.438 233.643 516.289 233.075C517.14 232.508 518.078 232.144 519.101 231.982C520.124 231.821 521.163 231.859 522.217 232.098C523.272 232.337 524.268 232.772 525.208 233.403C526.143 234.031 526.786 234.697 527.135 235.401C527.484 236.104 527.536 236.798 527.29 237.483C527.045 238.167 526.497 238.793 525.646 239.36ZM524.172 238.362C524.724 237.994 525.035 237.592 525.107 237.155C525.179 236.718 525.059 236.279 524.749 235.839C524.443 235.396 523.999 234.979 523.417 234.589C522.839 234.201 522.22 233.903 521.559 233.697C520.899 233.485 520.24 233.401 519.583 233.445C518.925 233.488 518.321 233.694 517.769 234.062C517.214 234.432 516.9 234.838 516.829 235.28C516.761 235.72 516.882 236.163 517.192 236.608C517.503 237.048 517.946 237.463 518.524 237.851C519.106 238.241 519.725 238.541 520.382 238.75C521.043 238.957 521.7 239.037 522.353 238.991C523.01 238.942 523.617 238.732 524.172 238.362ZM526.931 226.139L528.346 227.09L523.216 230.509L521.801 229.559L526.931 226.139ZM532.264 234.704L522.158 227.916C521.592 227.536 521.247 227.138 521.121 226.722C520.992 226.303 521.04 225.895 521.265 225.497C521.486 225.098 521.837 224.737 522.318 224.417C522.672 224.181 523.005 223.998 523.316 223.87C523.623 223.739 523.862 223.648 524.031 223.598L525.044 224.832C524.938 224.872 524.804 224.924 524.642 224.99C524.477 225.053 524.302 225.146 524.117 225.269C523.687 225.556 523.486 225.832 523.513 226.098C523.544 226.361 523.76 226.627 524.161 226.897L534.031 233.526L532.264 234.704ZM532.991 222.099L534.406 223.049L529.448 226.355L528.033 225.404L532.991 222.099ZM527.193 223.061L528.96 221.883L537.526 227.637C537.868 227.866 538.177 228.005 538.452 228.053C538.724 228.098 538.972 228.088 539.196 228.023C539.421 227.952 539.629 227.852 539.822 227.723C539.964 227.629 540.078 227.54 540.165 227.455C540.252 227.371 540.319 227.306 540.366 227.258L542.142 228.024C542.078 228.118 541.972 228.242 541.822 228.394C541.676 228.55 541.464 228.723 541.184 228.915C540.727 229.23 540.211 229.463 539.636 229.615C539.061 229.767 538.469 229.804 537.859 229.727C537.249 229.649 536.671 229.427 536.125 229.06L527.193 223.061ZM545.969 225.567L534.242 221.265L536.068 220.048L544.497 223.328L544.586 223.269L539.72 217.613L541.546 216.395L549.94 219.661L550.029 219.601L545.175 213.977L547.001 212.759L553.391 220.618L551.589 221.82L543.207 218.658L543.071 218.748L547.766 224.369L545.969 225.567ZM560.575 216.097C560 216.481 559.374 216.756 558.697 216.924C558.016 217.088 557.335 217.124 556.654 217.031C555.978 216.935 555.343 216.687 554.749 216.289C554.238 215.946 553.916 215.597 553.783 215.244C553.65 214.891 553.654 214.538 553.797 214.186C553.939 213.833 554.168 213.486 554.483 213.144C554.798 212.803 555.145 212.471 555.524 212.151C556.004 211.746 556.395 211.418 556.694 211.165C556.99 210.91 557.167 210.7 557.226 210.534C557.286 210.368 557.209 210.214 556.997 210.072L556.956 210.044C556.441 209.698 555.896 209.527 555.322 209.532C554.751 209.533 554.18 209.725 553.609 210.105C553.014 210.502 552.677 210.903 552.597 211.308C552.518 211.708 552.572 212.059 552.761 212.359L550.723 213.213C550.37 212.712 550.213 212.222 550.253 211.743C550.293 211.258 550.485 210.799 550.828 210.365C551.167 209.929 551.611 209.528 552.158 209.163C552.521 208.921 552.948 208.694 553.44 208.482C553.933 208.264 554.468 208.112 555.047 208.026C555.629 207.938 556.243 207.957 556.888 208.085C557.529 208.21 558.18 208.494 558.841 208.937L564.854 212.976L563.129 214.127L561.891 213.295L561.82 213.343C561.933 213.572 561.986 213.837 561.978 214.137C561.969 214.437 561.859 214.755 561.646 215.092C561.432 215.429 561.076 215.764 560.575 216.097ZM559.545 214.891C560.033 214.565 560.354 214.222 560.508 213.862C560.666 213.499 560.681 213.152 560.552 212.823C560.422 212.488 560.179 212.201 559.821 211.961L558.654 211.177C558.654 211.261 558.59 211.382 558.464 211.54C558.338 211.692 558.18 211.858 557.991 212.036C557.798 212.213 557.609 212.383 557.424 212.549C557.234 212.712 557.077 212.849 556.951 212.959C556.651 213.216 556.411 213.474 556.229 213.732C556.052 213.987 555.975 214.236 555.998 214.478C556.021 214.715 556.19 214.939 556.504 215.15C556.941 215.443 557.432 215.557 557.979 215.493C558.522 215.425 559.044 215.224 559.545 214.891ZM567.208 211.408L558.152 205.325L559.86 204.187L561.298 205.153L561.393 205.09C561.071 204.652 560.979 204.2 561.118 203.734C561.256 203.263 561.591 202.851 562.123 202.496C562.233 202.422 562.367 202.338 562.525 202.244C562.687 202.147 562.816 202.073 562.915 202.023L564.601 203.156C564.511 203.19 564.363 203.26 564.158 203.364C563.949 203.467 563.754 203.578 563.573 203.699C563.156 203.978 562.872 204.285 562.722 204.622C562.571 204.954 562.557 205.287 562.679 205.621C562.796 205.953 563.051 206.251 563.444 206.515L568.975 210.23L567.208 211.408ZM577.364 204.881C576.47 205.477 575.509 205.863 574.482 206.037C573.454 206.207 572.418 206.175 571.371 205.941C570.325 205.702 569.332 205.268 568.393 204.637C567.465 204.014 566.821 203.349 566.46 202.643C566.103 201.934 566.039 201.237 566.269 200.553C566.502 199.866 567.04 199.242 567.883 198.68C568.396 198.338 568.976 198.064 569.626 197.857C570.276 197.65 570.972 197.541 571.716 197.529C572.46 197.517 573.231 197.631 574.029 197.872C574.824 198.111 575.632 198.506 576.453 199.058L577.078 199.477L569.863 204.288L568.542 203.401L574.026 199.745C573.562 199.433 573.057 199.22 572.51 199.106C571.96 198.989 571.409 198.975 570.858 199.064C570.311 199.15 569.808 199.345 569.351 199.65C568.855 199.981 568.544 200.351 568.417 200.762C568.29 201.167 568.321 201.568 568.509 201.963C568.698 202.353 569.018 202.7 569.47 203.003L570.501 203.696C571.107 204.103 571.728 204.378 572.365 204.521C573.006 204.662 573.632 204.679 574.242 204.572C574.848 204.462 575.41 204.235 575.926 203.891C576.261 203.668 576.519 203.433 576.7 203.186C576.878 202.936 576.971 202.679 576.979 202.416C576.987 202.153 576.903 201.89 576.726 201.629L578.699 200.716C579.057 201.136 579.247 201.585 579.27 202.064C579.293 202.538 579.146 203.017 578.83 203.501C578.515 203.98 578.026 204.44 577.364 204.881Z" fill="black"/>
<path d="M541.581 173.116L529.506 165.006L531.332 163.788L536.58 167.313L542.613 163.29L537.366 159.766L539.198 158.545L551.273 166.655L549.441 167.876L544.176 164.34L538.142 168.362L543.407 171.898L541.581 173.116ZM556.632 163.35C556.057 163.733 555.431 164.009 554.754 164.176C554.073 164.341 553.392 164.376 552.711 164.283C552.034 164.187 551.399 163.94 550.806 163.541C550.295 163.198 549.973 162.85 549.84 162.497C549.706 162.144 549.711 161.791 549.853 161.438C549.995 161.086 550.224 160.739 550.54 160.397C550.855 160.055 551.202 159.724 551.58 159.403C552.061 158.999 552.451 158.67 552.751 158.418C553.046 158.163 553.224 157.953 553.283 157.787C553.342 157.621 553.266 157.467 553.054 157.324L553.012 157.297C552.497 156.951 551.953 156.78 551.378 156.784C550.808 156.786 550.237 156.977 549.665 157.358C549.071 157.754 548.733 158.155 548.654 158.561C548.575 158.961 548.629 159.311 548.817 159.612L546.78 160.465C546.426 159.964 546.27 159.474 546.31 158.995C546.35 158.511 546.542 158.052 546.885 157.618C547.224 157.181 547.667 156.78 548.215 156.415C548.577 156.174 549.005 155.947 549.497 155.734C549.989 155.517 550.525 155.365 551.103 155.279C551.686 155.19 552.3 155.21 552.945 155.337C553.586 155.462 554.237 155.746 554.897 156.19L560.911 160.229L559.185 161.379L557.947 160.548L557.876 160.595C557.99 160.824 558.043 161.089 558.034 161.389C558.026 161.689 557.915 162.008 557.702 162.344C557.489 162.681 557.132 163.016 556.632 163.35ZM555.601 162.143C556.09 161.818 556.411 161.475 556.565 161.114C556.723 160.751 556.737 160.405 556.608 160.075C556.479 159.741 556.235 159.453 555.878 159.213L554.71 158.429C554.71 158.513 554.647 158.634 554.521 158.792C554.395 158.945 554.237 159.11 554.048 159.289C553.855 159.465 553.665 159.636 553.48 159.801C553.291 159.964 553.133 160.101 553.007 160.211C552.708 160.469 552.467 160.727 552.286 160.984C552.108 161.239 552.031 161.488 552.054 161.73C552.078 161.967 552.246 162.192 552.561 162.403C552.997 162.696 553.489 162.81 554.036 162.745C554.579 162.677 555.101 162.477 555.601 162.143ZM563.264 158.66L554.208 152.578L555.916 151.439L557.355 152.405L557.449 152.342C557.127 151.905 557.036 151.453 557.174 150.987C557.313 150.516 557.648 150.103 558.18 149.748C558.29 149.675 558.424 149.591 558.582 149.496C558.743 149.399 558.873 149.326 558.972 149.276L560.658 150.408C560.567 150.442 560.42 150.512 560.215 150.617C560.006 150.719 559.811 150.831 559.63 150.952C559.212 151.23 558.928 151.538 558.778 151.874C558.628 152.206 558.614 152.539 558.735 152.874C558.853 153.206 559.108 153.504 559.501 153.768L565.031 157.482L563.264 158.66ZM572.901 152.472C572.168 152.961 571.327 153.272 570.379 153.404C569.43 153.532 568.445 153.471 567.422 153.221C566.399 152.967 565.398 152.511 564.42 151.854C563.441 151.196 562.767 150.525 562.399 149.84C562.034 149.152 561.954 148.492 562.16 147.86C562.366 147.229 562.833 146.67 563.562 146.184C564.125 145.809 564.673 145.57 565.204 145.468C565.735 145.361 566.219 145.328 566.656 145.368C567.097 145.406 567.465 145.452 567.76 145.508L567.866 145.437L563.379 142.424L565.146 141.246L577.221 149.356L575.495 150.506L574.086 149.56L573.939 149.658C574.025 149.858 574.091 150.109 574.138 150.409C574.189 150.706 574.133 151.033 573.971 151.388C573.809 151.743 573.452 152.105 572.901 152.472ZM571.787 151.203C572.296 150.864 572.591 150.488 572.675 150.075C572.758 149.656 572.651 149.225 572.352 148.782C572.058 148.337 571.592 147.9 570.956 147.473C570.327 147.05 569.686 146.741 569.033 146.545C568.38 146.349 567.747 146.28 567.133 146.336C566.519 146.393 565.954 146.594 565.438 146.938C564.906 147.292 564.6 147.68 564.521 148.101C564.441 148.523 564.549 148.953 564.843 149.394C565.141 149.831 565.589 150.251 566.187 150.652C566.792 151.058 567.427 151.364 568.092 151.568C568.756 151.771 569.408 151.85 570.045 151.804C570.683 151.752 571.263 151.552 571.787 151.203ZM581.711 146.362L569.984 142.061L571.81 140.843L580.239 144.124L580.328 144.065L575.462 138.409L577.288 137.191L585.682 140.456L585.77 140.397L580.916 134.772L582.742 133.555L589.133 141.414L587.331 142.616L578.948 139.453L578.812 139.544L583.507 145.165L581.711 146.362ZM596.317 136.893C595.742 137.277 595.116 137.552 594.438 137.719C593.757 137.884 593.077 137.92 592.396 137.827C591.719 137.731 591.084 137.483 590.491 137.085C589.98 136.741 589.658 136.393 589.524 136.04C589.391 135.687 589.396 135.334 589.538 134.982C589.68 134.629 589.909 134.282 590.225 133.94C590.54 133.598 590.887 133.267 591.265 132.947C591.746 132.542 592.136 132.213 592.436 131.961C592.731 131.706 592.909 131.496 592.968 131.33C593.027 131.164 592.951 131.01 592.738 130.868L592.697 130.84C592.182 130.494 591.638 130.323 591.063 130.328C590.492 130.329 589.922 130.52 589.35 130.901C588.755 131.298 588.418 131.699 588.339 132.104C588.259 132.504 588.314 132.855 588.502 133.155L586.464 134.009C586.111 133.508 585.955 133.018 585.995 132.539C586.035 132.054 586.227 131.595 586.57 131.161C586.909 130.725 587.352 130.324 587.9 129.959C588.262 129.717 588.69 129.49 589.182 129.278C589.674 129.06 590.21 128.908 590.788 128.822C591.371 128.734 591.985 128.753 592.63 128.881C593.271 129.006 593.922 129.29 594.582 129.733L600.596 133.772L598.87 134.923L597.632 134.091L597.561 134.138C597.675 134.368 597.728 134.632 597.719 134.933C597.711 135.233 597.6 135.551 597.387 135.888C597.174 136.225 596.817 136.56 596.317 136.893ZM595.286 135.687C595.775 135.361 596.096 135.018 596.25 134.658C596.408 134.294 596.422 133.948 596.293 133.619C596.164 133.284 595.92 132.997 595.563 132.757L594.395 131.972C594.395 132.057 594.332 132.178 594.206 132.336C594.08 132.488 593.922 132.654 593.733 132.832C593.54 133.008 593.35 133.179 593.165 133.345C592.976 133.508 592.818 133.644 592.692 133.755C592.393 134.012 592.152 134.27 591.971 134.528C591.793 134.783 591.716 135.032 591.739 135.274C591.762 135.511 591.931 135.735 592.246 135.946C592.682 136.239 593.174 136.353 593.721 136.288C594.264 136.221 594.786 136.02 595.286 135.687ZM602.949 132.203L593.893 126.121L595.601 124.982L597.04 125.949L597.134 125.886C596.812 125.448 596.721 124.996 596.859 124.53C596.998 124.059 597.333 123.646 597.865 123.292C597.975 123.218 598.109 123.134 598.267 123.04C598.428 122.943 598.558 122.869 598.656 122.819L600.343 123.952C600.252 123.986 600.104 124.055 599.9 124.16C599.691 124.263 599.496 124.374 599.315 124.495C598.897 124.773 598.613 125.081 598.463 125.418C598.313 125.749 598.299 126.082 598.42 126.417C598.538 126.749 598.793 127.047 599.186 127.311L604.716 131.025L602.949 132.203ZM613.106 125.677C612.211 126.273 611.251 126.659 610.223 126.833C609.196 127.003 608.159 126.971 607.113 126.737C606.066 126.498 605.073 126.063 604.134 125.433C603.206 124.81 602.562 124.145 602.201 123.439C601.845 122.73 601.781 122.033 602.01 121.349C602.244 120.662 602.782 120.037 603.625 119.475C604.137 119.134 604.718 118.86 605.368 118.653C606.017 118.446 606.714 118.337 607.458 118.325C608.201 118.313 608.973 118.427 609.771 118.668C610.565 118.907 611.373 119.302 612.195 119.854L612.82 120.273L605.604 125.084L604.284 124.197L609.768 120.541C609.304 120.229 608.799 120.016 608.252 119.902C607.701 119.785 607.15 119.771 606.599 119.86C606.052 119.946 605.55 120.141 605.093 120.446C604.597 120.777 604.285 121.147 604.158 121.558C604.032 121.963 604.063 122.363 604.251 122.759C604.439 123.149 604.759 123.496 605.211 123.799L606.243 124.492C606.848 124.899 607.47 125.174 608.107 125.317C608.748 125.458 609.374 125.474 609.984 125.368C610.59 125.258 611.151 125.031 611.667 124.687C612.002 124.464 612.26 124.229 612.442 123.981C612.619 123.732 612.712 123.475 612.72 123.212C612.729 122.948 612.645 122.686 612.468 122.425L614.441 121.512C614.798 121.932 614.988 122.381 615.011 122.86C615.034 123.334 614.888 123.813 614.572 124.297C614.256 124.776 613.768 125.236 613.106 125.677Z" fill="black"/>
<path d="M79.1457 307L70.8218 277.909H77.5405L82.3559 298.122H82.5974L87.9099 277.909H93.6627L98.961 298.165H99.2167L104.032 277.909H110.751L102.427 307H96.4326L90.8928 287.98H90.6655L85.14 307H79.1457ZM112.562 307V285.182H118.428V288.989H118.656C119.053 287.634 119.721 286.612 120.658 285.92C121.596 285.22 122.675 284.869 123.897 284.869C124.2 284.869 124.527 284.888 124.877 284.926C125.228 284.964 125.535 285.016 125.8 285.082V290.452C125.516 290.366 125.123 290.291 124.622 290.224C124.12 290.158 123.66 290.125 123.244 290.125C122.354 290.125 121.558 290.319 120.857 290.707C120.166 291.086 119.617 291.616 119.21 292.298C118.812 292.98 118.613 293.766 118.613 294.656V307H112.562ZM128.929 307V285.182H134.98V307H128.929ZM131.969 282.369C131.069 282.369 130.297 282.071 129.653 281.474C129.019 280.868 128.702 280.144 128.702 279.301C128.702 278.468 129.019 277.753 129.653 277.156C130.297 276.55 131.069 276.247 131.969 276.247C132.868 276.247 133.635 276.55 134.27 277.156C134.914 277.753 135.236 278.468 135.236 279.301C135.236 280.144 134.914 280.868 134.27 281.474C133.635 282.071 132.868 282.369 131.969 282.369ZM151.433 285.182V289.727H138.293V285.182H151.433ZM141.276 279.955H147.327V300.295C147.327 300.854 147.413 301.29 147.583 301.602C147.754 301.905 147.99 302.118 148.293 302.241C148.606 302.365 148.966 302.426 149.373 302.426C149.657 302.426 149.941 302.402 150.225 302.355C150.509 302.298 150.727 302.256 150.879 302.227L151.83 306.73C151.527 306.825 151.101 306.934 150.552 307.057C150.003 307.189 149.335 307.27 148.549 307.298C147.091 307.355 145.812 307.161 144.714 306.716C143.625 306.271 142.777 305.58 142.171 304.642C141.565 303.705 141.267 302.521 141.276 301.091V279.955ZM155.374 307V285.182H161.425V307H155.374ZM158.414 282.369C157.514 282.369 156.743 282.071 156.099 281.474C155.464 280.868 155.147 280.144 155.147 279.301C155.147 278.468 155.464 277.753 156.099 277.156C156.743 276.55 157.514 276.247 158.414 276.247C159.314 276.247 160.081 276.55 160.715 277.156C161.359 277.753 161.681 278.468 161.681 279.301C161.681 280.144 161.359 280.868 160.715 281.474C160.081 282.071 159.314 282.369 158.414 282.369ZM172.324 294.386V307H166.273V285.182H172.04V289.031H172.296C172.778 287.762 173.588 286.759 174.724 286.02C175.861 285.272 177.239 284.898 178.858 284.898C180.373 284.898 181.694 285.229 182.821 285.892C183.948 286.555 184.824 287.502 185.449 288.733C186.074 289.955 186.386 291.413 186.386 293.108V307H180.335V294.188C180.345 292.852 180.004 291.811 179.313 291.062C178.621 290.305 177.67 289.926 176.457 289.926C175.643 289.926 174.923 290.101 174.298 290.452C173.683 290.802 173.2 291.313 172.849 291.986C172.509 292.649 172.333 293.449 172.324 294.386ZM200.985 315.636C199.025 315.636 197.344 315.366 195.943 314.827C194.55 314.296 193.443 313.572 192.619 312.653C191.795 311.735 191.26 310.703 191.014 309.557L196.61 308.804C196.781 309.24 197.05 309.647 197.42 310.026C197.789 310.404 198.277 310.707 198.883 310.935C199.498 311.171 200.247 311.29 201.127 311.29C202.443 311.29 203.528 310.968 204.38 310.324C205.242 309.689 205.673 308.624 205.673 307.128V303.136H205.417C205.152 303.742 204.754 304.315 204.224 304.855C203.693 305.395 203.012 305.835 202.178 306.176C201.345 306.517 200.351 306.688 199.195 306.688C197.557 306.688 196.066 306.309 194.721 305.551C193.386 304.784 192.32 303.615 191.525 302.043C190.739 300.461 190.346 298.463 190.346 296.048C190.346 293.577 190.748 291.512 191.553 289.855C192.358 288.198 193.428 286.957 194.764 286.134C196.108 285.31 197.581 284.898 199.181 284.898C200.403 284.898 201.425 285.106 202.249 285.523C203.073 285.93 203.736 286.441 204.238 287.057C204.749 287.663 205.142 288.259 205.417 288.847H205.644V285.182H211.653V307.213C211.653 309.069 211.198 310.622 210.289 311.872C209.38 313.122 208.121 314.06 206.511 314.685C204.91 315.319 203.068 315.636 200.985 315.636ZM201.113 302.142C202.088 302.142 202.912 301.901 203.585 301.418C204.266 300.925 204.787 300.224 205.147 299.315C205.516 298.397 205.701 297.298 205.701 296.02C205.701 294.741 205.521 293.634 205.161 292.696C204.801 291.749 204.281 291.015 203.599 290.494C202.917 289.973 202.088 289.713 201.113 289.713C200.119 289.713 199.281 289.983 198.599 290.523C197.917 291.053 197.401 291.792 197.05 292.739C196.7 293.686 196.525 294.779 196.525 296.02C196.525 297.279 196.7 298.368 197.05 299.287C197.41 300.196 197.926 300.902 198.599 301.403C199.281 301.896 200.119 302.142 201.113 302.142Z" fill="black"/>
<path d="M410.489 282.98V277.909H434.381V282.98H425.475V307H419.396V282.98H410.489ZM439.438 315.182C438.671 315.182 437.952 315.12 437.279 314.997C436.616 314.884 436.067 314.737 435.631 314.557L436.995 310.04C437.705 310.258 438.345 310.376 438.913 310.395C439.49 310.414 439.988 310.281 440.404 309.997C440.83 309.713 441.176 309.23 441.441 308.548L441.796 307.625L433.97 285.182H440.333L444.85 301.205H445.077L449.637 285.182H456.043L447.563 309.358C447.156 310.532 446.602 311.555 445.901 312.426C445.21 313.307 444.334 313.984 443.273 314.457C442.213 314.94 440.934 315.182 439.438 315.182ZM459.14 315.182V285.182H465.106V288.847H465.376C465.641 288.259 466.024 287.663 466.526 287.057C467.038 286.441 467.701 285.93 468.515 285.523C469.339 285.106 470.362 284.898 471.583 284.898C473.174 284.898 474.642 285.314 475.987 286.148C477.331 286.972 478.406 288.217 479.211 289.884C480.016 291.541 480.418 293.619 480.418 296.119C480.418 298.553 480.025 300.608 479.239 302.284C478.463 303.951 477.402 305.215 476.058 306.077C474.722 306.929 473.226 307.355 471.569 307.355C470.395 307.355 469.396 307.161 468.572 306.773C467.757 306.384 467.09 305.897 466.569 305.31C466.048 304.713 465.65 304.112 465.376 303.506H465.191V315.182H459.14ZM465.063 296.091C465.063 297.388 465.243 298.52 465.603 299.486C465.963 300.452 466.484 301.205 467.166 301.744C467.847 302.275 468.676 302.54 469.651 302.54C470.636 302.54 471.47 302.27 472.151 301.73C472.833 301.181 473.349 300.423 473.7 299.457C474.059 298.482 474.239 297.36 474.239 296.091C474.239 294.831 474.064 293.723 473.714 292.767C473.363 291.811 472.847 291.062 472.166 290.523C471.484 289.983 470.646 289.713 469.651 289.713C468.666 289.713 467.833 289.973 467.151 290.494C466.479 291.015 465.963 291.754 465.603 292.71C465.243 293.667 465.063 294.794 465.063 296.091ZM484.452 307V285.182H490.504V307H484.452ZM487.492 282.369C486.593 282.369 485.821 282.071 485.177 281.474C484.542 280.868 484.225 280.144 484.225 279.301C484.225 278.468 484.542 277.753 485.177 277.156C485.821 276.55 486.593 276.247 487.492 276.247C488.392 276.247 489.159 276.55 489.793 277.156C490.437 277.753 490.759 278.468 490.759 279.301C490.759 280.144 490.437 280.868 489.793 281.474C489.159 282.071 488.392 282.369 487.492 282.369ZM501.402 294.386V307H495.351V285.182H501.118V289.031H501.374C501.857 287.762 502.666 286.759 503.803 286.02C504.939 285.272 506.317 284.898 507.936 284.898C509.451 284.898 510.772 285.229 511.899 285.892C513.026 286.555 513.902 287.502 514.527 288.733C515.152 289.955 515.465 291.413 515.465 293.108V307H509.413V294.188C509.423 292.852 509.082 291.811 508.391 291.062C507.699 290.305 506.748 289.926 505.536 289.926C504.721 289.926 504.001 290.101 503.376 290.452C502.761 290.802 502.278 291.313 501.928 291.986C501.587 292.649 501.412 293.449 501.402 294.386ZM530.063 315.636C528.103 315.636 526.422 315.366 525.021 314.827C523.629 314.296 522.521 313.572 521.697 312.653C520.873 311.735 520.338 310.703 520.092 309.557L525.688 308.804C525.859 309.24 526.129 309.647 526.498 310.026C526.867 310.404 527.355 310.707 527.961 310.935C528.577 311.171 529.325 311.29 530.205 311.29C531.522 311.29 532.606 310.968 533.458 310.324C534.32 309.689 534.751 308.624 534.751 307.128V303.136H534.495C534.23 303.742 533.832 304.315 533.302 304.855C532.772 305.395 532.09 305.835 531.256 306.176C530.423 306.517 529.429 306.688 528.273 306.688C526.635 306.688 525.144 306.309 523.799 305.551C522.464 304.784 521.398 303.615 520.603 302.043C519.817 300.461 519.424 298.463 519.424 296.048C519.424 293.577 519.827 291.512 520.631 289.855C521.436 288.198 522.506 286.957 523.842 286.134C525.186 285.31 526.659 284.898 528.259 284.898C529.481 284.898 530.504 285.106 531.327 285.523C532.151 285.93 532.814 286.441 533.316 287.057C533.827 287.663 534.22 288.259 534.495 288.847H534.722V285.182H540.731V307.213C540.731 309.069 540.276 310.622 539.367 311.872C538.458 313.122 537.199 314.06 535.589 314.685C533.988 315.319 532.147 315.636 530.063 315.636ZM530.191 302.142C531.166 302.142 531.99 301.901 532.663 301.418C533.345 300.925 533.865 300.224 534.225 299.315C534.595 298.397 534.779 297.298 534.779 296.02C534.779 294.741 534.599 293.634 534.239 292.696C533.88 291.749 533.359 291.015 532.677 290.494C531.995 289.973 531.166 289.713 530.191 289.713C529.197 289.713 528.359 289.983 527.677 290.523C526.995 291.053 526.479 291.792 526.129 292.739C525.778 293.686 525.603 294.779 525.603 296.02C525.603 297.279 525.778 298.368 526.129 299.287C526.488 300.196 527.005 300.902 527.677 301.403C528.359 301.896 529.197 302.142 530.191 302.142Z" fill="black"/>
</g>
<defs>
<clipPath id="clip0_1_2">
<rect width="640" height="480" fill="white"/>
</clipPath>
</defs>
</svg>
